<?xml version="1.0" encoding="UTF-8" standalone="no"?>
<!-- Generator: Adobe Illustrator 15.0.2, SVG Export Plug-In . SVG Version: 6.00 Build 0)  -->

<svg
   xmlns:dc="http://purl.org/dc/elements/1.1/"
   xmlns:cc="http://creativecommons.org/ns#"
   xmlns:rdf="http://www.w3.org/1999/02/22-rdf-syntax-ns#"
   xmlns:svg="http://www.w3.org/2000/svg"
   xmlns="http://www.w3.org/2000/svg"
   xmlns:sodipodi="http://sodipodi.sourceforge.net/DTD/sodipodi-0.dtd"
   xmlns:inkscape="http://www.inkscape.org/namespaces/inkscape"
   version="1.1"
   id="Layer_1"
   x="0px"
   y="0px"
   width="100"
   height="100"
   viewBox="-945 -210.002 100 99.999998"
   enable-background="new -945 -210.002 1045 730.002"
   xml:space="preserve"
   inkscape:version="0.48.4 r9939"
   sodipodi:docname="11.svg"><metadata
     id="metadata509"><rdf:RDF><cc:Work
         rdf:about=""><dc:format>image/svg+xml</dc:format><dc:type
           rdf:resource="http://purl.org/dc/dcmitype/StillImage" /><dc:title /></cc:Work></rdf:RDF></metadata><defs
     id="defs507" /><sodipodi:namedview
     pagecolor="#ffffff"
     bordercolor="#666666"
     borderopacity="1"
     objecttolerance="10"
     gridtolerance="10"
     guidetolerance="10"
     inkscape:pageopacity="0"
     inkscape:pageshadow="2"
     inkscape:window-width="1920"
     inkscape:window-height="1056"
     id="namedview505"
     showgrid="false"
     inkscape:zoom="0.55885167"
     inkscape:cx="322.62175"
     inkscape:cy="-246.63484"
     inkscape:window-x="0"
     inkscape:window-y="24"
     inkscape:window-maximized="1"
     inkscape:current-layer="Layer_1"
     fit-margin-top="0"
     fit-margin-left="0"
     fit-margin-right="0"
     fit-margin-bottom="0" /><g
     id="g111"
     transform="translate(-105,-105.00001)"><circle
       cx="-790"
       cy="-55.001999"
       r="50"
       id="circle113"
       sodipodi:cx="-790"
       sodipodi:cy="-55.001999"
       sodipodi:rx="50"
       sodipodi:ry="50"
       style="fill:#cac5c0"
       d="m -740,-55.001999 c 0,27.614238 -22.38576,50.0000001 -50,50.0000001 -27.61424,0 -50,-22.3857621 -50,-50.0000001 0,-27.614237 22.38576,-50.000001 50,-50.000001 27.61424,0 50,22.385764 50,50.000001 z" /></g><path
     d="m -905.169,-191.68001 v 50.84 c 0,6.049 2.516,9.07 7.536,9.07 h 1.279 v 3.449 h -27.081 v -3.449 h 1.788 c 5.109,0 7.667,-3.021 7.667,-9.07 v -33.34 c 0,-6.133 -2.173,-9.195 -6.518,-9.195 h -2.683 v -3.449 h 1.024 c 5.28,0 10.047,-1.617 14.304,-4.855 l 2.684,-0.001 0,0 z m 32.449,0 v 50.84 c 0,6.049 2.511,9.07 7.537,9.07 h 1.278 v 3.449 h -27.086 v -3.449 h 1.788 c 5.115,0 7.667,-3.021 7.667,-9.07 v -33.34 c 0,-6.133 -2.173,-9.195 -6.513,-9.195 h -2.682 v -3.449 h 1.019 c 5.28,0 10.047,-1.617 14.31,-4.855 l 2.682,-0.001 0,0 z"
     id="path115"
     inkscape:connector-curvature="0"
     style="fill:#0d0f0f" /></svg>