<?xml version="1.0" encoding="UTF-8" standalone="no"?>
<!-- Generator: Adobe Illustrator 15.0.2, SVG Export Plug-In . SVG Version: 6.00 Build 0)  -->

<svg
   xmlns:dc="http://purl.org/dc/elements/1.1/"
   xmlns:cc="http://creativecommons.org/ns#"
   xmlns:rdf="http://www.w3.org/1999/02/22-rdf-syntax-ns#"
   xmlns:svg="http://www.w3.org/2000/svg"
   xmlns="http://www.w3.org/2000/svg"
   xmlns:sodipodi="http://sodipodi.sourceforge.net/DTD/sodipodi-0.dtd"
   xmlns:inkscape="http://www.inkscape.org/namespaces/inkscape"
   version="1.1"
   id="Layer_1"
   x="0px"
   y="0px"
   width="100"
   height="100"
   viewBox="-945 -210.002 100 99.999998"
   enable-background="new -945 -210.002 1045 730.002"
   xml:space="preserve"
   inkscape:version="0.48.4 r9939"
   sodipodi:docname="17.svg"><metadata
     id="metadata509"><rdf:RDF><cc:Work
         rdf:about=""><dc:format>image/svg+xml</dc:format><dc:type
           rdf:resource="http://purl.org/dc/dcmitype/StillImage" /><dc:title /></cc:Work></rdf:RDF></metadata><defs
     id="defs507" /><sodipodi:namedview
     pagecolor="#ffffff"
     bordercolor="#666666"
     borderopacity="1"
     objecttolerance="10"
     gridtolerance="10"
     guidetolerance="10"
     inkscape:pageopacity="0"
     inkscape:pageshadow="2"
     inkscape:window-width="1920"
     inkscape:window-height="1056"
     id="namedview505"
     showgrid="false"
     inkscape:zoom="0.55885167"
     inkscape:cx="-307.37825"
     inkscape:cy="-246.63484"
     inkscape:window-x="0"
     inkscape:window-y="24"
     inkscape:window-maximized="1"
     inkscape:current-layer="Layer_1"
     fit-margin-top="0"
     fit-margin-left="0"
     fit-margin-right="0"
     fit-margin-bottom="0" /><g
     id="g75"
     transform="translate(-735,-105.00001)"><circle
       cx="-160"
       cy="-55.001999"
       r="50"
       id="circle77"
       sodipodi:cx="-160"
       sodipodi:cy="-55.001999"
       sodipodi:rx="50"
       sodipodi:ry="50"
       style="fill:#cac5c0"
       d="m -110,-55.001999 c 0,27.614238 -22.38576,50.0000001 -50,50.0000001 -27.61424,0 -50,-22.3857621 -50,-50.0000001 0,-27.614237 22.38576,-50.000001 50,-50.000001 27.61424,0 50,22.385764 50,50.000001 z" /></g><path
     d="m -911.289,-190.84801 v 49.307 c 0,5.879 2.43,8.814 7.285,8.814 h 1.148 v 3.322 h -26.188 v -3.322 h 1.789 c 4.938,0 7.41,-2.936 7.41,-8.814 v -32.318 c 0,-5.957 -2.129,-8.941 -6.387,-8.941 h -2.559 v -3.32 h 1.023 c 5.109,0 9.711,-1.576 13.797,-4.727 l 2.682,-10e-4 0,0 z m 32.707,61.825 h -8.945 v -1.02 c 0,-5.707 1.789,-12.902 5.363,-21.586 5.453,-12.949 10.48,-22.912 15.074,-29.893 l 0.516,-0.895 h -20.953 c -3.066,0 -5.387,0.639 -6.961,1.912 -1.574,1.279 -2.793,3.41 -3.645,6.389 h -3.445 l 3.832,-16.861 h 2.301 c 1.273,0.598 3.578,0.895 6.898,0.895 h 27.59 v 4.855 c -1.02,1.449 -2.297,3.746 -3.832,6.896 -2.984,5.795 -5.707,12.521 -8.176,20.182 -3.664,11.415 -5.535,21.126 -5.617,29.126 z"
     id="path79"
     inkscape:connector-curvature="0"
     style="fill:#0d0f0f" /></svg>