<?xml version="1.0" encoding="UTF-8" standalone="no"?>
<!-- Generator: Adobe Illustrator 15.0.2, SVG Export Plug-In . SVG Version: 6.00 Build 0)  -->

<svg
   xmlns:dc="http://purl.org/dc/elements/1.1/"
   xmlns:cc="http://creativecommons.org/ns#"
   xmlns:rdf="http://www.w3.org/1999/02/22-rdf-syntax-ns#"
   xmlns:svg="http://www.w3.org/2000/svg"
   xmlns="http://www.w3.org/2000/svg"
   xmlns:sodipodi="http://sodipodi.sourceforge.net/DTD/sodipodi-0.dtd"
   xmlns:inkscape="http://www.inkscape.org/namespaces/inkscape"
   version="1.1"
   id="Layer_1"
   x="0px"
   y="0px"
   width="100"
   height="100"
   viewBox="-945 -210.002 100 99.999998"
   enable-background="new -945 -210.002 1045 730.002"
   xml:space="preserve"
   inkscape:version="0.48.4 r9939"
   sodipodi:docname="4.svg"><metadata
     id="metadata509"><rdf:RDF><cc:Work
         rdf:about=""><dc:format>image/svg+xml</dc:format><dc:type
           rdf:resource="http://purl.org/dc/dcmitype/StillImage" /><dc:title /></cc:Work></rdf:RDF></metadata><defs
     id="defs507" /><sodipodi:namedview
     pagecolor="#ffffff"
     bordercolor="#666666"
     borderopacity="1"
     objecttolerance="10"
     gridtolerance="10"
     guidetolerance="10"
     inkscape:pageopacity="0"
     inkscape:pageshadow="2"
     inkscape:window-width="1920"
     inkscape:window-height="1056"
     id="namedview505"
     showgrid="false"
     inkscape:zoom="1.1177033"
     inkscape:cx="165.6255"
     inkscape:cy="-199.71713"
     inkscape:window-x="0"
     inkscape:window-y="24"
     inkscape:window-maximized="1"
     inkscape:current-layer="Layer_1"
     fit-margin-top="0"
     fit-margin-left="0"
     fit-margin-right="0"
     fit-margin-bottom="0" /><g
     id="g27"
     transform="translate(-420,-8.1787109e-6)"><circle
       cx="-475"
       cy="-160.002"
       r="50"
       id="circle29"
       sodipodi:cx="-475"
       sodipodi:cy="-160.002"
       sodipodi:rx="50"
       sodipodi:ry="50"
       style="fill:#cac5c0"
       d="m -425,-160.002 c 0,27.61424 -22.38576,50 -50,50 -27.61424,0 -50,-22.38576 -50,-50 0,-27.61424 22.38576,-50 50,-50 27.61424,0 50,22.38576 50,50 z" /></g><path
     d="m -880.73,-142.64101 v 6.723 c 0,7.684 2.695,11.525 8.094,11.525 h 2.33 v 4.394 h -32.658 v -4.394 h 2.607 c 5.303,0 7.961,-3.798 7.961,-11.392 v -6.856 h -32.795 v -6.861 l 34.578,-50.497 h 9.883 v 51.592 h 0.82 c 3.383,0 5.852,-2.608 7.408,-7.816 h 4.115 l -1.92,13.583 -10.423,-0.001 0,0 z m -11.666,-5.766 v -41.458 l -27.893,41.458 h 27.893 z"
     id="path31"
     inkscape:connector-curvature="0"
     style="fill:#0d0f0f" /></svg>