<?xml version="1.0" encoding="UTF-8" standalone="no"?>
<!-- Generator: Adobe Illustrator 15.0.2, SVG Export Plug-In . SVG Version: 6.00 Build 0)  -->

<svg
   xmlns:dc="http://purl.org/dc/elements/1.1/"
   xmlns:cc="http://creativecommons.org/ns#"
   xmlns:rdf="http://www.w3.org/1999/02/22-rdf-syntax-ns#"
   xmlns:svg="http://www.w3.org/2000/svg"
   xmlns="http://www.w3.org/2000/svg"
   xmlns:sodipodi="http://sodipodi.sourceforge.net/DTD/sodipodi-0.dtd"
   xmlns:inkscape="http://www.inkscape.org/namespaces/inkscape"
   version="1.1"
   id="Layer_1"
   x="0px"
   y="0px"
   width="100"
   height="100"
   viewBox="-945 -210.002 100 99.999998"
   enable-background="new -945 -210.002 1045 730.002"
   xml:space="preserve"
   inkscape:version="0.48.4 r9939"
   sodipodi:docname="Mana.svg"><metadata
     id="metadata509"><rdf:RDF><cc:Work
         rdf:about=""><dc:format>image/svg+xml</dc:format><dc:type
           rdf:resource="http://purl.org/dc/dcmitype/StillImage" /><dc:title></dc:title></cc:Work></rdf:RDF></metadata><defs
     id="defs507" /><sodipodi:namedview
     pagecolor="#ffffff"
     bordercolor="#666666"
     borderopacity="1"
     objecttolerance="10"
     gridtolerance="10"
     guidetolerance="10"
     inkscape:pageopacity="0"
     inkscape:pageshadow="2"
     inkscape:window-width="1920"
     inkscape:window-height="1056"
     id="namedview505"
     showgrid="false"
     fit-margin-top="0"
     fit-margin-left="0"
     fit-margin-right="0"
     fit-margin-bottom="0"
     inkscape:zoom="0.55885167"
     inkscape:cx="1312.2531"
     inkscape:cy="72.41178"
     inkscape:window-x="0"
     inkscape:window-y="24"
     inkscape:window-maximized="1"
     inkscape:current-layer="Layer_1" /><g
     id="g337"
     transform="translate(0,-524.99999)"><circle
       cx="-895"
       cy="364.99799"
       r="50"
       id="circle339"
       sodipodi:cx="-895"
       sodipodi:cy="364.99799"
       sodipodi:rx="50"
       sodipodi:ry="50"
       style="fill:#cac5c0"
       d="m -845,364.99799 c 0,27.61423 -22.38576,50 -50,50 -27.61424,0 -50,-22.38577 -50,-50 0,-27.61424 22.38576,-50 50,-50 27.61424,0 50,22.38576 50,50 z" /></g><path
     d="m -859.668,-151.08199 h -36.004 l 13.185,-9.383 c -4.898,-3.887 -10.566,-5.828 -16.984,-5.828 -3.211,0 -5.414,0.613 -6.59,1.836 -1.184,1.227 -1.777,3.445 -1.777,6.654 0,8.873 4.563,18.34 13.691,28.396 l -10.391,10.521 c -12.09,-14.705 -18.129,-27.844 -18.129,-39.424 0,-6.928 2.086,-12.447 6.27,-16.545 4.18,-4.098 9.746,-6.148 16.668,-6.148 8.453,0 17.664,3.215 27.641,9.635 l 7.728,-13.182 4.692,33.468 z"
     id="path341"
     inkscape:connector-curvature="0"
     style="fill:#0d0f0f" /></svg>