<?xml version="1.0" encoding="UTF-8" standalone="no"?>
<!-- Generator: Adobe Illustrator 15.0.2, SVG Export Plug-In . SVG Version: 6.00 Build 0)  -->

<svg
   xmlns:dc="http://purl.org/dc/elements/1.1/"
   xmlns:cc="http://creativecommons.org/ns#"
   xmlns:rdf="http://www.w3.org/1999/02/22-rdf-syntax-ns#"
   xmlns:svg="http://www.w3.org/2000/svg"
   xmlns="http://www.w3.org/2000/svg"
   xmlns:sodipodi="http://sodipodi.sourceforge.net/DTD/sodipodi-0.dtd"
   xmlns:inkscape="http://www.inkscape.org/namespaces/inkscape"
   version="1.1"
   id="Layer_1"
   x="0px"
   y="0px"
   width="100"
   height="100"
   viewBox="-945 -210.002 100 99.999998"
   enable-background="new -945 -210.002 1045 730.002"
   xml:space="preserve"
   inkscape:version="0.48.4 r9939"
   sodipodi:docname="u.svg"><metadata
     id="metadata509"><rdf:RDF><cc:Work
         rdf:about=""><dc:format>image/svg+xml</dc:format><dc:type
           rdf:resource="http://purl.org/dc/dcmitype/StillImage" /><dc:title /></cc:Work></rdf:RDF></metadata><defs
     id="defs507" /><sodipodi:namedview
     pagecolor="#ffffff"
     bordercolor="#666666"
     borderopacity="1"
     objecttolerance="10"
     gridtolerance="10"
     guidetolerance="10"
     inkscape:pageopacity="0"
     inkscape:pageshadow="2"
     inkscape:window-width="1920"
     inkscape:window-height="1056"
     id="namedview505"
     showgrid="false"
     inkscape:zoom="0.55885167"
     inkscape:cx="-97.37825"
     inkscape:cy="-141.63284"
     inkscape:window-x="0"
     inkscape:window-y="24"
     inkscape:window-maximized="1"
     inkscape:current-layer="Layer_1"
     fit-margin-top="0"
     fit-margin-left="0"
     fit-margin-right="0"
     fit-margin-bottom="0" /><g
     id="g147"
     transform="translate(-525,-210.00201)"><circle
       cx="-370"
       cy="50"
       r="50"
       id="circle149"
       sodipodi:cx="-370"
       sodipodi:cy="50"
       sodipodi:rx="50"
       sodipodi:ry="50"
       style="fill:#c1d7e9"
       d="m -320,50 c 0,27.614237 -22.38576,50 -50,50 -27.61424,0 -50,-22.385763 -50,-50 0,-27.614237 22.38576,-50 50,-50 27.61424,0 50,22.385763 50,50 z" /></g><path
     d="m -877.512,-126.28301 c -4.787,4.871 -10.684,7.307 -17.688,7.307 -7.861,0 -14.098,-2.69 -18.711,-8.073 -4.359,-5.127 -6.537,-11.662 -6.537,-19.606 0,-8.543 3.717,-18.286 11.15,-29.224 6.064,-8.969 13.199,-16.83 21.402,-23.58 -1.197,5.469 -1.793,9.355 -1.793,11.662 0,5.299 1.664,10.467 4.996,15.508 4.102,5.98 7.219,10.426 9.357,13.328 3.332,5.043 4.998,9.955 4.998,14.737 0.002,7.093 -2.391,13.074 -7.174,17.941 z m -0.129,-27.362 c -1.281,-2.861 -2.777,-4.762 -4.486,-5.703 0.256,0.514 0.385,1.24 0.385,2.18 0,1.795 -0.512,4.357 -1.539,7.689 l -1.664,5.127 c 0,2.99 1.492,4.486 4.484,4.486 3.16,0 4.742,-2.095 4.742,-6.281 0,-2.134 -0.64,-4.632 -1.922,-7.498 z"
     id="path151"
     inkscape:connector-curvature="0"
     style="fill:#0d0f0f" /></svg>