<?xml version="1.0" encoding="UTF-8" standalone="no"?>
<!-- Generator: Adobe Illustrator 15.0.2, SVG Export Plug-In . SVG Version: 6.00 Build 0)  -->

<svg
   xmlns:dc="http://purl.org/dc/elements/1.1/"
   xmlns:cc="http://creativecommons.org/ns#"
   xmlns:rdf="http://www.w3.org/1999/02/22-rdf-syntax-ns#"
   xmlns:svg="http://www.w3.org/2000/svg"
   xmlns="http://www.w3.org/2000/svg"
   xmlns:sodipodi="http://sodipodi.sourceforge.net/DTD/sodipodi-0.dtd"
   xmlns:inkscape="http://www.inkscape.org/namespaces/inkscape"
   version="1.1"
   id="Layer_1"
   x="0px"
   y="0px"
   width="100"
   height="100"
   viewBox="-945 -210.002 100 99.999998"
   enable-background="new -945 -210.002 1045 730.002"
   xml:space="preserve"
   inkscape:version="0.48.4 r9939"
   sodipodi:docname="UT.svg"><metadata
     id="metadata509"><rdf:RDF><cc:Work
         rdf:about=""><dc:format>image/svg+xml</dc:format><dc:type
           rdf:resource="http://purl.org/dc/dcmitype/StillImage" /><dc:title></dc:title></cc:Work></rdf:RDF></metadata><defs
     id="defs507" /><sodipodi:namedview
     pagecolor="#ffffff"
     bordercolor="#666666"
     borderopacity="1"
     objecttolerance="10"
     gridtolerance="10"
     guidetolerance="10"
     inkscape:pageopacity="0"
     inkscape:pageshadow="2"
     inkscape:window-width="1920"
     inkscape:window-height="1056"
     id="namedview505"
     showgrid="false"
     inkscape:zoom="0.55885167"
     inkscape:cx="1207.2531"
     inkscape:cy="-32.590242"
     inkscape:window-x="0"
     inkscape:window-y="24"
     inkscape:window-maximized="1"
     inkscape:current-layer="Layer_1"
     fit-margin-top="0"
     fit-margin-left="0"
     fit-margin-right="0"
     fit-margin-bottom="0" /><g
     id="g343"
     transform="translate(-105,-524.99999)"><circle
       cx="-790"
       cy="364.99799"
       r="50"
       id="circle345"
       sodipodi:cx="-790"
       sodipodi:cy="364.99799"
       sodipodi:rx="50"
       sodipodi:ry="50"
       style="fill:#0d0f0f"
       d="m -740,364.99799 c 0,27.61423 -22.38576,50 -50,50 -27.61424,0 -50,-22.38577 -50,-50 0,-27.61424 22.38576,-50 50,-50 27.61424,0 50,22.38576 50,50 z" /></g><path
     d="m -866.055,-185.72299 -12.648,7.418 c 6.16,9.566 9.238,18.406 9.238,26.512 0,6.648 -1.969,11.977 -5.895,15.988 -3.938,4.018 -9.219,6.023 -15.871,6.023 -11.113,0 -23.719,-5.797 -37.824,-17.391 l 10.094,-9.977 c 9.656,8.76 18.73,13.135 27.246,13.135 3.078,0 5.207,-0.564 6.379,-1.699 1.18,-1.137 1.766,-3.244 1.766,-6.322 0,-6.162 -1.867,-11.596 -5.594,-16.295 l -8.996,12.643 v -34.531 l 32.105,4.496 z"
     id="path347"
     inkscape:connector-curvature="0"
     style="fill:#ffffff" /></svg>